<?xml version="1.0" standalone="no"?>
<!DOCTYPE svg PUBLIC "-//W3C//DTD SVG 20010904//EN"
 "http://www.w3.org/TR/2001/REC-SVG-20010904/DTD/svg10.dtd">
<svg version="1.0" xmlns="http://www.w3.org/2000/svg"
 width="400.000000pt" height="400.000000pt" viewBox="0 0 400.000000 400.000000"
 preserveAspectRatio="xMidYMid meet">
<metadata>
Created by potrace 1.11, written by Peter Selinger 2001-2013
</metadata>
<g transform="translate(0.000000,400.000000) scale(0.100000,-0.100000)"
fill="#000000" stroke="none">
<path d="M779 2986 c-141 -75 -506 -290 -516 -303 -16 -21 -19 -1313 -3 -1343
5 -10 83 -60 172 -111 90 -51 207 -119 261 -152 144 -87 140 -87 337 29 91 54
175 102 187 108 13 6 23 14 23 19 0 4 4 7 9 7 5 0 71 37 147 81 77 45 189 110
249 146 61 35 117 68 125 73 8 6 30 18 48 27 17 9 32 20 32 23 0 3 -15 14 -32
23 -18 9 -55 29 -83 45 -325 188 -443 255 -459 258 -12 2 -82 -34 -175 -90
-185 -110 -248 -146 -255 -146 -3 0 -6 149 -6 331 l0 331 33 -20 c358 -215
1078 -632 1119 -647 9 -4 32 4 55 18 21 13 58 35 83 49 25 14 180 103 345 198
655 378 679 391 685 376 4 -12 5 -578 1 -633 -1 -13 -24 -1 -270 141 l-171 99
-45 -24 c-115 -61 -534 -305 -535 -310 0 -6 305 -185 831 -488 96 -55 184
-101 194 -101 21 0 556 302 574 323 8 11 10 193 9 683 l-3 668 -55 38 c-30 20
-58 37 -62 37 -4 1 -53 28 -109 61 -55 33 -102 60 -104 60 -2 0 -55 31 -120
69 -66 40 -124 68 -135 66 -11 -2 -72 -35 -137 -73 -65 -38 -127 -74 -138 -80
-172 -98 -443 -255 -455 -262 -15 -9 -61 -36 -165 -95 -27 -16 -83 -48 -123
-72 -41 -24 -76 -43 -79 -43 -3 0 -17 -9 -33 -20 l-28 -20 -573 335 c-315 184
-580 335 -589 335 -8 0 -36 -11 -61 -24z"/>
</g>
</svg>
